   0
SECTION
   2
HEADER
   9
$ACADVER
   1
AC1009
   9
$INSBASE
  10
0.0
  20
0.0
  30
0.0
   9
$EXTMIN
  10
-116.9669177515094987
  20
-16.4718140408367617
  30
0.0
   9
$EXTMAX
  10
242.9894694789323069
  20
260.4281945378461955
  30
0.0
   9
$LIMMIN
  10
0.0
  20
0.0
   9
$LIMMAX
  10
50000.0
  20
32000.0
   9
$TEXTSIZE
  40
350.0
   9
$CLAYER
   8
0
   9
$CELTYPE
   6
BYLAYER
   9
$LUNITS
  70
2
   9
$LUPREC
  70
4
   9
$AUNITS
  70
0
   9
$AUPREC
  70
1
   9
$PLINEGEN
  70
0
   9
$LTSCALE
  40
1000.0
   0
ENDSEC
  0
SECTION
  2
TABLES
   0
TABLE
   2
LTYPE
  70
1
   0
LTYPE
   2
CONTINUOUS
  70
0
   3
Solid line
  72
65
  73
0
  40
0.0
   0
ENDTAB
   0
TABLE
   2
LAYER
  70
6
   0
LAYER
   2
0
  70
     0
  62
     7
   6
CONTINUOUS
   0
LAYER
   2
PUB_DIM
  70
     0
  62
     3
   6
CONTINUOUS
   0
LAYER
   2
DIM_LEAD
  70
     0
  62
     3
   6
CONTINUOUS
   0
LAYER
   2
œšÖț
  70
     0
  62
     1
   6
CONTINUOUS
   0
LAYER
   2
ŐÚ”Č·¶Î§
  70
     0
  62
     5
   6
CONTINUOUS
   0
LAYER
   2
žšÖúÏß
  70
     0
  62
     4
   6
CONTINUOUS
   0
ENDTAB
   0
TABLE
   2
STYLE
  70
2
   0
STYLE
   2
STANDARD
  70
     0
  40
0.0
  41
1.0
  50
0.0
  71
     0
  42
350.0
   3
gbenor.shx
   4
gbcbig.shx
   0
STYLE
   2
_TCH_DIM
  70
     0
  40
0.0
  41
1.0
  50
0.0
  71
     0
  42
350.0
   3
SIMPLEX
   4
GBCBIG
   0
ENDTAB
   0
TABLE
   2
APPID
  70
3
   0
APPID
   2
ACAD
  70
0
   0
APPID
   2
GRADIENTCOLOR1ACI
  70
0
   0
APPID
   2
GRADIENTCOLOR2ACI
  70
0
   0
ENDTAB
  0
ENDSEC
   0
SECTION
   2
BLOCKS
   0
BLOCK
   8
0
   2
*D3
  70
     1
  10
0.0
  20
0.0
  30
0.0
   3
*D3
   1

   0
LINE
   5
112
   8
PUB_DIM
  62
     0
  10
-52.9333798675242306
  20
96.3864320799410166
  30
0.0
  11
-50.0366901366249124
  21
101.8964393305550971
  31
0.0
   0
LINE
   5
113
   8
PUB_DIM
  62
     0
  10
26.5062919194010291
  20
54.6238588155318467
  30
0.0
  11
29.4029816503003687
  21
60.1338660661460125
  31
0.0
   0
LINE
   5
114
   8
PUB_DIM
  62
     0
  10
-51.20001384754611
  20
99.6835954717145682
  30
0.0
  11
28.2396579393791711
  21
57.9210222073054197
  31
0.0
   0
INSERT
   5
115
   8
PUB_DIM
  62
     0
   2
_ARCHTICK
  10
-51.20001384754611
  20
99.6835954717145682
  30
0.0
  50
152.2684522059327037
   0
INSERT
   5
116
   8
PUB_DIM
  62
     0
   2
_ARCHTICK
  10
28.2396579393791711
  20
57.9210222073054197
  30
0.0
  50
332.2684522059327037
   0
INSERT
   5
117
   8
0
   2
*U11
  10
0.0
  20
0.0
  30
0.0
   0
POINT
   5
118
   8
DEFPOINTS
  62
     0
  10
-54.3293683206296691
  20
93.7310194493322939
  30
0.0
   0
POINT
   5
119
   8
DEFPOINTS
  62
     0
  10
25.1103034662955906
  20
51.9684461849231312
  30
0.0
   0
POINT
   5
11A
   8
DEFPOINTS
  62
     0
  10
28.2396579393791711
  20
57.9210222073054197
  30
0.0
   0
ENDBLK
   0
BLOCK
   8
0
   2
*D4
  70
     1
  10
0.0
  20
0.0
  30
0.0
   3
*D4
   1

   0
LINE
   5
11F
   8
PUB_DIM
  62
     0
  10
88.4205231377457608
  20
54.4730805423895887
  30
0.0
  11
80.0981861556570465
  21
67.0960767479415239
  31
0.0
   0
LINE
   5
120
   8
PUB_DIM
  62
     0
  10
213.6522410110684973
  20
137.0383083231963894
  30
0.0
  11
205.3299040289797119
  21
149.6613045287483885
  31
0.0
   0
LINE
   5
121
   8
PUB_DIM
  62
     0
  10
81.4742732853371336
  20
65.0088814500528116
  30
0.0
  11
206.7059911586599128
  21
147.574109230859591
  31
0.0
   0
INSERT
   5
122
   8
PUB_DIM
  62
     0
   2
_ARCHTICK
  10
81.4742732853371336
  20
65.0088814500528116
  30
0.0
  50
213.3968507396322138
   0
INSERT
   5
123
   8
PUB_DIM
  62
     0
   2
_ARCHTICK
  10
206.7059911586599128
  20
147.574109230859591
  30
0.0
  50
33.3968507396321925
   0
INSERT
   5
124
   8
0
   2
*U12
  10
0.0
  20
0.0
  30
0.0
   0
POINT
   5
125
   8
DEFPOINTS
  62
     0
  10
90.0718276933619109
  20
51.9684461849231312
  30
0.0
   0
POINT
   5
126
   8
DEFPOINTS
  62
     0
  10
215.3035455666845905
  20
134.5336739657300029
  30
0.0
   0
POINT
   5
127
   8
DEFPOINTS
  62
     0
  10
206.7059911586599128
  20
147.574109230859591
  30
0.0
   0
ENDBLK
   0
BLOCK
   8
0
   2
*D5
  70
     1
  10
0.0
  20
0.0
  30
0.0
   3
*D5
   1

   0
LINE
   5
12C
   8
PUB_DIM
  62
     0
  10
-106.2643396110344014
  20
124.4232814708039001
  30
0.0
  11
-99.9723945628343813
  21
136.3916543573554918
  31
0.0
   0
LINE
   5
12D
   8
PUB_DIM
  62
     0
  10
26.5062919194010291
  20
54.6238588155318396
  30
0.0
  11
32.798236967601099
  21
66.5922317020835237
  31
0.0
   0
LINE
   5
12E
   8
PUB_DIM
  62
     0
  10
-101.1357182737556002
  20
134.1788104985149062
  30
0.0
  11
31.6349132566798907
  21
64.3793878432429381
  31
0.0
   0
INSERT
   5
12F
   8
PUB_DIM
  62
     0
   2
_ARCHTICK
  10
-101.1357182737556002
  20
134.1788104985149062
  30
0.0
  50
152.2684522059327037
   0
INSERT
   5
130
   8
PUB_DIM
  62
     0
   2
_ARCHTICK
  10
31.6349132566798907
  20
64.3793878432429381
  30
0.0
  50
332.2684522059327037
   0
INSERT
   5
131
   8
0
   2
*U13
  10
0.0
  20
0.0
  30
0.0
   0
POINT
   5
132
   8
DEFPOINTS
  62
     0
  10
-107.6603280641398044
  20
121.7678688401951064
  30
0.0
   0
POINT
   5
133
   8
DEFPOINTS
  62
     0
  10
25.1103034662955906
  20
51.968446184923117
  30
0.0
   0
POINT
   5
134
   8
DEFPOINTS
  62
     0
  10
31.6349132566798907
  20
64.3793878432429381
  30
0.0
   0
ENDBLK
   0
BLOCK
   8
0
   2
*D6
  70
     1
  10
0.0
  20
0.0
  30
0.0
   3
*D6
   1

   0
LINE
   5
139
   8
PUB_DIM
  62
     0
  10
52.9932666174427425
  20
51.9684461849231596
  30
0.0
  11
47.4994383611773898
  21
51.9684461849231525
  31
0.0
   0
LINE
   5
13A
   8
PUB_DIM
  62
     0
  10
52.993266617442778
  20
201.9684461849232093
  30
0.0
  11
47.4994383611773614
  21
201.9684461849232093
  31
0.0
   0
LINE
   5
13B
   8
PUB_DIM
  62
     0
  10
49.9994383611773969
  20
51.9684461849231596
  30
0.0
  11
49.9994383611773685
  21
201.9684461849232093
  31
0.0
   0
INSERT
   5
13C
   8
PUB_DIM
  62
     0
   2
_ARCHTICK
  10
49.9994383611773969
  20
51.9684461849231596
  30
0.0
  50
270.0
   0
INSERT
   5
13D
   8
PUB_DIM
  62
     0
   2
_ARCHTICK
  10
49.9994383611773685
  20
201.9684461849232093
  30
0.0
  50
90.0
   0
INSERT
   5
13E
   8
0
   2
*U14
  10
0.0
  20
0.0
  30
0.0
   0
POINT
   5
13F
   8
DEFPOINTS
  62
     0
  10
55.9932666174427425
  20
51.9684461849231596
  30
0.0
   0
POINT
   5
140
   8
DEFPOINTS
  62
     0
  10
55.993266617442778
  20
201.9684461849232093
  30
0.0
   0
POINT
   5
141
   8
DEFPOINTS
  62
     0
  10
49.9994383611773685
  20
201.9684461849232093
  30
0.0
   0
ENDBLK
   0
BLOCK
   8
0
   2
*D7
  70
     1
  10
0.0
  20
0.0
  30
0.0
   3
*D7
   1

   0
LINE
   5
146
   8
PUB_DIM
  62
     0
  10
40.5499691158475031
  20
51.9684461849231525
  30
0.0
  11
37.5004398409510102
  21
51.9684461849231525
  31
0.0
   0
LINE
   5
147
   8
PUB_DIM
  62
     0
  10
40.5499691158475315
  20
141.9684461849232093
  30
0.0
  11
37.5004398409510031
  21
141.9684461849232093
  31
0.0
   0
LINE
   5
148
   8
PUB_DIM
  62
     0
  10
40.0004398409510102
  20
51.9684461849231525
  30
0.0
  11
40.0004398409509889
  21
141.9684461849232093
  31
0.0
   0
INSERT
   5
149
   8
PUB_DIM
  62
     0
   2
_ARCHTICK
  10
40.0004398409510102
  20
51.9684461849231525
  30
0.0
  50
270.0
   0
INSERT
   5
14A
   8
PUB_DIM
  62
     0
   2
_ARCHTICK
  10
40.0004398409509889
  20
141.9684461849232093
  30
0.0
  50
90.0
   0
INSERT
   5
14B
   8
0
   2
*U15
  10
0.0
  20
0.0
  30
0.0
   0
POINT
   5
14C
   8
DEFPOINTS
  62
     0
  10
43.5499691158475031
  20
51.9684461849231525
  30
0.0
   0
POINT
   5
14D
   8
DEFPOINTS
  62
     0
  10
43.5499691158475315
  20
141.9684461849232093
  30
0.0
   0
POINT
   5
14E
   8
DEFPOINTS
  62
     0
  10
40.0004398409509889
  20
141.9684461849232093
  30
0.0
   0
ENDBLK
   0
BLOCK
   8
0
   2
*D8
  70
     1
  10
0.0
  20
0.0
  30
0.0
   3
*D8
   1

   0
LINE
   5
153
   8
PUB_DIM
  62
     0
  10
88.420523137745775
  20
54.4730805423895816
  30
0.0
  11
85.5936918844194992
  21
58.7607079553710605
  31
0.0
   0
LINE
   5
154
   8
PUB_DIM
  62
     0
  10
163.559553861739289
  20
104.0122172108737004
  30
0.0
  11
160.7327226084130984
  21
108.2998446238551935
  31
0.0
   0
LINE
   5
155
   8
PUB_DIM
  62
     0
  10
86.9697790140996148
  20
56.6735126574823482
  30
0.0
  11
162.108809738093214
  21
106.2126493259664954
  31
0.0
   0
INSERT
   5
156
   8
PUB_DIM
  62
     0
   2
_ARCHTICK
  10
86.9697790140996148
  20
56.6735126574823482
  30
0.0
  50
213.3968507396322138
   0
INSERT
   5
157
   8
PUB_DIM
  62
     0
   2
_ARCHTICK
  10
162.108809738093214
  20
106.2126493259664954
  30
0.0
  50
33.3968507396321925
   0
INSERT
   5
158
   8
0
   2
*U16
  10
0.0
  20
0.0
  30
0.0
   0
POINT
   5
159
   8
DEFPOINTS
  62
     0
  10
90.0718276933619109
  20
51.9684461849231312
  30
0.0
   0
POINT
   5
15A
   8
DEFPOINTS
  62
     0
  10
165.2108584173554959
  20
101.5075828534072002
  30
0.0
   0
POINT
   5
15B
   8
DEFPOINTS
  62
     0
  10
162.108809738093214
  20
106.2126493259664954
  30
0.0
   0
ENDBLK
   0
BLOCK
   8
0
   2
*U11
  70
     1
  10
0.0
  20
0.0
  30
0.0
   3
*U11
   1

   0
TEXT
   5
1D4
   8
PUB_DIM
  62
     7
  10
-13.5481121106769695
  20
81.3157834413299554
  30
0.0
  40
2.9750000000000001
   1
1.5H
  50
332.2684522059327037
  41
0.7058823529411766
   7
_TCH_DIM_T3
   0
ENDBLK
   0
BLOCK
   8
0
   2
*U12
  70
     1
  10
0.0
  20
0.0
  30
0.0
   3
*U12
   1

   0
TEXT
   5
1D8
   8
PUB_DIM
  62
     7
  10
141.3080129236213054
  20
105.9694418362098958
  30
0.0
  40
2.9750000000000001
   1
150
  50
33.3968507396321925
  41
0.7058823529411766
   7
_TCH_DIM_T3
   0
ENDBLK
   0
BLOCK
   8
0
   2
*U13
  70
     1
  10
0.0
  20
0.0
  30
0.0
   3
*U13
   1

   0
TEXT
   5
1DC
   8
PUB_DIM
  62
     7
  10
-36.3757678933632391
  20
101.5599090305146035
  30
0.0
  40
2.9750000000000001
   1
150
  50
332.2684522059327037
  41
0.7058823529411766
   7
_TCH_DIM_T3
   0
ENDBLK
   0
BLOCK
   8
0
   2
*U14
  70
     1
  10
0.0
  20
0.0
  30
0.0
   3
*U14
   1

   0
TEXT
   5
1E0
   8
PUB_DIM
  62
     7
  10
48.7369383611774083
  20
124.4684461849230956
  30
0.0
  40
2.9750000000000001
   1
150
  50
90.0
  41
0.7058823529411766
   7
_TCH_DIM_T3
   0
ENDBLK
   0
BLOCK
   8
0
   2
*U15
  70
     1
  10
0.0
  20
0.0
  30
0.0
   3
*U15
   1

   0
TEXT
   5
1E4
   8
PUB_DIM
  62
     7
  10
38.7379398409510287
  20
93.9684461849231383
  30
0.0
  40
2.9750000000000001
   1
1.5H
  50
90.0
  41
0.7058823529411766
   7
_TCH_DIM_T3
   0
ENDBLK
   0
BLOCK
   8
0
   2
*U16
  70
     1
  10
0.0
  20
0.0
  30
0.0
   3
*U16
   1

   0
TEXT
   5
1E8
   8
PUB_DIM
  62
     7
  10
121.3397360181414939
  20
80.8458100615420676
  30
0.0
  40
2.9750000000000001
   1
1.5H
  50
33.3968507396321925
  41
0.7058823529411766
   7
_TCH_DIM_T3
   0
ENDBLK
   0
BLOCK
   8
0
   2
*X10
  70
     1
  10
0.0
  20
0.0
  30
0.0
   3
*X10
   1

   0
ENDBLK
   0
BLOCK
   8
0
   2
_ARCHTICK
  70
     0
  10
0.0
  20
0.0
  30
0.0
   3
_ARCHTICK
   1

   0
POLYLINE
   5
25
   8
0
   6
BYBLOCK
  62
     0
  66
     1
  10
0.0
  20
0.0
  30
0.0
  40
0.4
  41
0.4
   0
VERTEX
   5
17E
   8
0
   6
BYBLOCK
  62
     0
  10
-0.5
  20
-0.5
  30
0.0
   0
VERTEX
   5
17F
   8
0
   6
BYBLOCK
  62
     0
  10
0.5
  20
0.5
  30
0.0
   0
SEQEND
   5
180
   8
0
   6
BYBLOCK
  62
     0
   0
ENDBLK
   0
ENDSEC
   0
SECTION
   2
ENTITIES
   0
POLYLINE
   5
10
   8
œšÖț
  66
     1
  10
0.0
  20
0.0
  30
0.0
  70
     1
   0
VERTEX
   5
171
   8
œšÖț
  10
38.1103034662955906
  20
-0.5482143134722719
  30
0.0
   0
VERTEX
   5
172
   8
œšÖț
  10
25.1103034662955906
  20
21.9684461849231312
  30
0.0
   0
VERTEX
   5
173
   8
œšÖț
  10
77.0718276933619109
  20
51.9684461849231312
  30
0.0
   0
VERTEX
   5
174
   8
œšÖț
  10
90.0718276933619109
  20
29.451785686527721
  30
0.0
   0
SEQEND
   5
175
   8
œšÖț
   0
INSERT
   5
14
   8
0
   6
CONTINUOUS
   2
*X10
  10
0.0
  20
0.0
  30
0.0
1001
GRADIENTCOLOR1ACI
1070
     5
1001
GRADIENTCOLOR2ACI
1070
     2
1001
ACAD
1000
HATCH
1002
{
1070
    19
1000
ANSI31
1040
200.0
1040
0.0
1000
R14_HATCH_DATA
1000
14
1011
1.0
1021
0.0
1031
0.0
1021
0.0
1031
0.0
1011
0.0
1021
0.0
1031
0.0
1021
1.0
1031
0.0
1011
0.0
1021
0.0
1031
0.0
1021
0.0
1031
1.0
1040
0.0
1010
0.0
1020
0.0
1030
1.0
1000
ANSI31
1070
     0
1070
     0
1071
        1
1071
        1
1071
        4
1070
     1
1040
38.1103034662955906
1040
-0.5482143134722719
1040
25.1103034662955906
1040
21.9684461849231312
1070
     1
1040
25.1103034662955906
1040
21.9684461849231312
1040
77.0718276933619109
1040
51.9684461849231312
1070
     1
1040
77.0718276933619109
1040
51.9684461849231312
1040
90.0718276933619109
1040
29.451785686527721
1070
     1
1040
90.0718276933619109
1040
29.451785686527721
1040
38.1103034662955906
1040
-0.5482143134722719
1071
        0
1070
     1
1070
     1
1040
0.0
1040
200.0
1070
     0
1070
     1
1040
0.7853981633974483
1040
-38.1103034662955906
1040
0.5482143134722719
1040
-224.5064030267288047
1040
224.5064030267288047
1070
     0
1071
        1
1040
-38.1103034662955906
1040
0.5482143134722719
1040
0.0
1002
}
   0
LINE
   5
18
   8
žšÖúÏß
  10
-73.2275495236681309
  20
51.9684461849231312
  30
0.0
  11
155.94662860038801
  21
51.9684461849231312
  31
0.0
   0
LINE
   5
1A
   8
žšÖúÏß
  10
90.0718276933619109
  20
-16.4718140408367617
  30
0.0
  11
90.0718276933619109
  21
260.4281945378461955
  31
0.0
   0
LINE
   5
1B
   8
žšÖúÏß
  10
25.1103034662955906
  20
-16.4718140408367617
  30
0.0
  11
25.1103034662955906
  21
260.4281945378461955
  31
0.0
   0
POLYLINE
   5
1C
   8
ŐÚ”Č·¶Î§
  66
     1
  10
0.0
  20
0.0
  30
0.0
   0
VERTEX
   5
179
   8
ŐÚ”Č·¶Î§
  10
-59.8533582642176682
  20
81.6530581133771989
  30
0.0
  42
-0.3188599697468464
   0
VERTEX
   5
17A
   8
ŐÚ”Č·¶Î§
  10
25.1103034662955906
  20
141.9684461849230956
  30
0.0
   0
VERTEX
   5
17B
   8
ŐÚ”Č·¶Î§
  10
90.0718276933619393
  20
141.9684461849230956
  30
0.0
  42
-0.272862229571746
   0
VERTEX
   5
17C
   8
ŐÚ”Č·¶Î§
  10
168.8250873548925881
  20
95.5336168225267102
  30
0.0
   0
SEQEND
   5
17D
   8
ŐÚ”Č·¶Î§
   0
LINE
   5
31
   8
žšÖúÏß
  10
-73.2275495236681309
  20
-0.5482143134722719
  30
0.0
  11
155.94662860038801
  21
-0.5482143134722719
  31
0.0
   0
LINE
   5
32
   8
žšÖúÏß
  10
90.0718276933619109
  20
51.9684461849231312
  30
0.0
  11
215.3035455666845905
  21
134.5336739657298892
  31
0.0
   0
LINE
   5
33
   8
žšÖúÏß
  10
25.1103034662955906
  20
51.9684461849231312
  30
0.0
  11
-107.6603280641400033
  21
121.7678688401953053
  31
0.0
   0
LINE
   5
34
   8
ŐÚ”Č·¶Î§
  10
38.1103034662955906
  20
-0.5482143134722719
  30
0.0
  11
-107.6603280641399039
  21
121.7678688401953053
  31
0.0
   0
ARC
   5
35
   8
ŐÚ”Č·¶Î§
  10
25.11030346629558
  20
51.968446184923117
  30
0.0
  40
150.0
  50
90.0
  51
152.2684522059327037
   0
LINE
   5
36
   8
ŐÚ”Č·¶Î§
  10
25.1103034662955906
  20
201.9684461849230956
  30
0.0
  11
90.0718276933619109
  21
201.9684461849230956
  31
0.0
   0
ARC
   5
37
   8
ŐÚ”Č·¶Î§
  10
90.0718276933619109
  20
51.9684461849231099
  30
0.0
  40
150.0
  50
33.3968507396321925
  51
90.0
   0
LINE
   5
38
   8
ŐÚ”Č·¶Î§
  10
215.3035455666845905
  20
134.5336739657298892
  30
0.0
  11
90.0718276933619109
  21
29.451785686527721
  31
0.0
   0
LINE
   5
FA
   8
DIM_LEAD
  10
57.5910655798287507
  20
25.7101159357254296
  30
0.0
  11
177.8220879237346992
  21
25.7101159357254296
  31
0.0
   0
POLYLINE
   5
FB
   8
DIM_LEAD
  66
     1
  10
0.0
  20
0.0
  30
0.0
  70
     1
  40
0.4000000000000001
  41
0.4000000000000001
   0
VERTEX
   5
1C7
   8
DIM_LEAD
  10
57.3910655798287479
  20
25.7101159357254296
  30
0.0
  42
1.0
   0
VERTEX
   5
1C8
   8
DIM_LEAD
  10
57.7910655798287465
  20
25.7101159357254296
  30
0.0
  42
1.0
   0
SEQEND
   5
1C9
   8
DIM_LEAD
   0
TEXT
   5
FC
   8
DIM_LEAD
  62
     7
  10
189.3358940002011934
  20
26.9462861484913887
  30
0.0
  40
3.375886524822695
   1
ŐÚ”ČœšÖț
   7
_TCH_DIM
   0
LINE
   5
FD
   8
DIM_LEAD
  10
177.8220879237346992
  20
25.7101159357254296
  30
0.0
  11
199.8433408087119005
  21
25.7101159357254296
  31
0.0
   0
LINE
   5
FE
   8
DIM_LEAD
  10
-10.5849917248572307
  20
40.3119899214928168
  30
0.0
  11
-54.1452867516970926
  21
24.3503918189644608
  31
0.0
   0
POLYLINE
   5
FF
   8
DIM_LEAD
  66
     1
  10
0.0
  20
0.0
  30
0.0
  70
     1
  40
0.4000000000000001
  41
0.4000000000000001
   0
VERTEX
   5
1CA
   8
DIM_LEAD
  10
-10.3972018213988502
  20
40.3808009101435701
  30
0.0
  42
1.0
   0
VERTEX
   5
1CB
   8
DIM_LEAD
  10
-10.7727816283156095
  20
40.2431789328420706
  30
0.0
  42
1.0
   0
SEQEND
   5
1CC
   8
DIM_LEAD
   0
TEXT
   5
100
   8
DIM_LEAD
  62
     7
  10
-108.0865710272662028
  20
25.6237960742836002
  30
0.0
  40
3.375886524822695
   1
ŽóșźÈŐ
   7
_TCH_DIM
   0
TEXT
   5
101
   8
DIM_LEAD
  62
     7
  10
-100.7142306017343003
  20
25.6237960742836002
  30
0.0
  40
2.9750000000000001
   1
8:00
  41
0.7058823529411766
   7
_TCH_DIM
   0
TEXT
   5
102
   8
DIM_LEAD
  62
     7
  10
-93.2142306017342861
  20
25.6237960742836002
  30
0.0
  40
3.375886524822695
   1
ÈŐŐŐ·œÎ»œÇżŰÖÆÏß
   7
_TCH_DIM
   0
LINE
   5
103
   8
DIM_LEAD
  10
-54.1452867516970926
  20
24.3503918189644608
  30
0.0
  11
-109.1365710272662
  21
24.3503918189644608
  31
0.0
   0
LINE
   5
104
   8
DIM_LEAD
  10
152.6876866300231939
  20
81.9927298261288371
  30
0.0
  11
172.3166959803467932
  21
66.9398585849718302
  31
0.0
   0
POLYLINE
   5
105
   8
DIM_LEAD
  66
     1
  10
0.0
  20
0.0
  30
0.0
  70
     1
  40
0.4000000000000001
  41
0.4000000000000001
   0
VERTEX
   5
1CD
   8
DIM_LEAD
  10
152.5289808348397003
  20
82.1144363196908245
  30
0.0
  42
1.0
   0
VERTEX
   5
1CE
   8
DIM_LEAD
  10
152.8463924252068011
  20
81.8710233325668497
  30
0.0
  42
1.0
   0
SEQEND
   5
1CF
   8
DIM_LEAD
   0
TEXT
   5
106
   8
DIM_LEAD
  62
     7
  10
174.9389869118716092
  20
68.2132628402909802
  30
0.0
  40
3.375886524822695
   1
ŽóșźÈŐ
   7
_TCH_DIM
   0
TEXT
   5
107
   8
DIM_LEAD
  62
     7
  10
182.3113273374034975
  20
68.2132628402909802
  30
0.0
  40
2.9750000000000001
   1
16:00
  41
0.7058823529411766
   7
_TCH_DIM
   0
TEXT
   5
108
   8
DIM_LEAD
  62
     7
  10
191.4113273374034918
  20
68.2132628402909802
  30
0.0
  40
3.375886524822695
   1
ÈŐŐŐ·œÎ»œÇżŰÖÆÏß
   7
_TCH_DIM
   0
LINE
   5
109
   8
DIM_LEAD
  10
172.3166959803467932
  20
66.9398585849718302
  30
0.0
  11
211.2272847842120882
  21
66.9398585849718302
  31
0.0
   0
LINE
   5
10A
   8
DIM_LEAD
  10
131.4762802677095976
  20
153.6450782297355033
  30
0.0
  11
175.7992437205429894
  21
195.1206407975261925
  31
0.0
   0
POLYLINE
   5
10B
   8
DIM_LEAD
  66
     1
  10
0.0
  20
0.0
  30
0.0
  70
     1
  40
0.4000000000000001
  41
0.4000000000000001
   0
VERTEX
   5
1D0
   8
DIM_LEAD
  10
131.3302459499284112
  20
153.5084254652915092
  30
0.0
  42
1.0
   0
VERTEX
   5
1D1
   8
DIM_LEAD
  10
131.6223145854908125
  20
153.7817309941794974
  30
0.0
  42
1.0
   0
SEQEND
   5
1D2
   8
DIM_LEAD
   0
TEXT
   5
10C
   8
DIM_LEAD
  62
     7
  10
230.210746074676905
  20
196.3568110102922049
  30
0.0
  40
3.375886524822695
   1
±»ŐÚ”Č·¶Î§
   7
_TCH_DIM
   0
LINE
   5
10D
   8
DIM_LEAD
  10
175.7992437205429894
  20
195.1206407975261925
  30
0.0
  11
242.9894694789323069
  21
195.1206407975261925
  31
0.0
   0
DIMENSION
   5
10E
   8
PUB_DIM
   2
*D3
  10
28.2396579393791711
  20
57.9210222073054197
  30
0.0
  11
-10.2005218720701407
  21
81.2364370842346517
  31
0.0
  70
     1
   1
1.5H
  13
-54.3293683206296691
  23
93.7310194493322939
  33
0.0
  14
25.1103034662955906
  24
51.9684461849231312
  34
0.0
   0
DIMENSION
   5
11B
   8
PUB_DIM
   2
*D4
  10
206.7059911586599128
  20
147.574109230859591
  30
0.0
  11
142.576436379350298
  21
108.5874101681338004
  31
0.0
  70
     1
  13
90.0718276933619109
  23
51.9684461849231312
  33
0.0
  14
215.3035455666845905
  24
134.5336739657300029
  34
0.0
   0
DIMENSION
   5
128
   8
PUB_DIM
   2
*D5
  10
31.6349132566798907
  20
64.3793878432429381
  30
0.0
  11
-33.4707464265245207
  21
101.7132274156035976
  31
0.0
  70
     1
  13
-107.6603280641399039
  23
121.7678688401952058
  33
0.0
  14
25.1103034662955906
  24
51.968446184923117
  34
0.0
   0
DIMENSION
   5
135
   8
PUB_DIM
   2
*D6
  10
49.9994383611773685
  20
201.9684461849232093
  30
0.0
  11
47.2494383611773969
  21
126.9684461849230956
  31
0.0
  70
     1
  13
55.9932666174427069
  23
51.9684461849231312
  33
0.0
  14
55.9932666174427496
  24
201.9684461849230956
  34
0.0
   0
DIMENSION
   5
142
   8
PUB_DIM
   2
*D7
  10
40.0004398409509889
  20
141.9684461849232093
  30
0.0
  11
37.2504398409510316
  21
96.9684461849231525
  31
0.0
  70
     1
   1
1.5H
  13
43.5499691158474818
  23
51.968446184923117
  33
0.0
  14
43.5499691158475102
  24
141.9684461849230956
  34
0.0
   0
DIMENSION
   5
14F
   8
PUB_DIM
   2
*D8
  10
162.108809738093214
  20
106.2126493259664954
  30
0.0
  11
123.0255985334482034
  21
83.7389958194019783
  31
0.0
  70
     1
   1
1.5H
  13
90.0718276933619109
  23
51.9684461849231312
  33
0.0
  14
165.2108584173554959
  24
101.5075828534072002
  34
0.0
   0
ENDSEC
  0
EOF
